<svg version="1.1" id="Layer_1" xmlns="http://www.w3.org/2000/svg" xmlns:xlink="http://www.w3.org/1999/xlink" viewBox="0 0 551.034 551.034" xml:space="preserve" width="100px" height="100px">
  <g>
    <path style="fill:#E1306C;" d="M387.408,0H163.622C73.285,0,0,73.285,0,163.622v223.765
      c0,90.337,73.285,163.622,163.622,163.622h223.765c90.337,0,163.622-73.285,163.622-163.622V163.622
      C551.034,73.285,477.745,0,387.408,0z M496.143,387.408c0,59.889-48.481,108.377-108.377,108.377H163.268
      c-59.897,0-108.377-48.488-108.377-108.377V163.268c0-59.896,48.48-108.377,108.377-108.377h224.498
      c59.896,0,108.377,48.481,108.377,108.377V387.408z"/>
    <path style="fill:#E1306C;" d="M275.517,133.11c-78.344,0-141.896,63.552-141.896,141.896
      c0,78.343,63.552,141.896,141.896,141.896s141.896-63.553,141.896-141.896C417.414,196.662,353.861,133.11,275.517,133.11z
       M275.517,364.773c-49.261,0-89.767-40.505-89.767-89.767c0-49.261,40.505-89.767,89.767-89.767
      s89.767,40.506,89.767,89.767C365.284,324.268,324.779,364.773,275.517,364.773z"/>
    <circle style="fill:#E1306C;" cx="418.31" cy="134.07" r="34.149"/>
  </g>
</svg>
