<svg xmlns="http://www.w3.org/2000/svg" viewBox="0 0 448 512" width="100px" height="100px">
  <path fill="#0077B5" d="M100.28 448H7.4V148.9h92.88zm-46.44-344C24.08 104 0 79.92 0 50.14A49.87 49.87 0 0149.84 0c27.43 0 49.68 22.22 49.68 49.76 0 29.78-24.16 54.1-49.68 54.1zM447.9 448h-92.66V302.4c0-34.6-12.43-58.2-43.45-58.2-23.63 0-37.65 15.88-43.77 31.18-2.26 5.5-2.82 13.2-2.82 21v151.6h-92.66s1.2-246.1 0-271.9h92.66v38.54c12.33-19.1 34.26-46.34 83.33-46.34 60.87 0 106.44 39.72 106.44 125.02V448z"/>
</svg>
