<svg xmlns="http://www.w3.org/2000/svg" viewBox="0 0 384 512" width="100px" height="100px">
  <path fill="#1DA1F2" d="M383.4 97.2c-14.1 6.3-29.3 10.6-45.3 12.5 16.3-9.8 28.9-25.3 34.7-43.7-15.2 9-32 15.5-49.8 19-14.3-15.2-34.6-24.6-57-24.6-43.2 0-78.2 35-78.2 78.2 0 6.1 .7 12.1 2 17.8-65.1-3.3-122.7-34.4-161.2-81.7-6.7 11.4-10.6 24.7-10.6 38.8 0 26.8 13.7 50.5 34.5 64.4-12.7-.4-24.7-3.9-35.2-9.7v1c0 37.4 26.6 68.6 62 75.7-6.5 1.8-13.3 2.8-20.4 2.8-5 0-9.8-.5-14.5-1.4 9.9 30.7 38.6 53.1 72.5 53.7-26.6 20.9-60.1 33.4-96.5 33.4-6.3 0-12.5-.4-18.7-1.1 34.4 22 75.3 34.8 119.2 34.8 143 0 221.2-118.5 221.2-221.2 0-3.4-.1-6.7-.2-10.1 15.2-11 28.3-24.6 38.7-40.1z"/>
</svg>
